<?xml version="1.0" encoding="utf-8"?>
<!-- Generator: Adobe Illustrator 23.1.0, SVG Export Plug-In . SVG Version: 6.00 Build 0)  -->
<svg version="1.1" id="圖層_1" xmlns="http://www.w3.org/2000/svg" xmlns:xlink="http://www.w3.org/1999/xlink" x="0px" y="0px"
	 viewBox="0 0 496 279" style="enable-background:new 0 0 496 279;" xml:space="preserve">
<style type="text/css">
	.st0{fill-rule:evenodd;clip-rule:evenodd;fill:#FFFFFF;}
	.st1{fill-rule:evenodd;clip-rule:evenodd;fill:#CC5662;}
	.st2{fill:#F0C821;}
	.st3{fill-rule:evenodd;clip-rule:evenodd;fill:#F0C821;}
	.st4{fill-rule:evenodd;clip-rule:evenodd;fill:#231815;}
	.st5{clip-path:url(#SVGID_2_);}
	.st6{clip-path:url(#SVGID_6_);}
	.st7{clip-path:url(#SVGID_10_);}
	.st8{clip-path:url(#SVGID_14_);}
	.st9{clip-path:url(#SVGID_14_);fill-rule:evenodd;clip-rule:evenodd;fill:#FFFFFF;}
	.st10{clip-path:url(#SVGID_18_);}
	.st11{clip-path:url(#SVGID_22_);}
	.st12{clip-path:url(#SVGID_26_);}
	.st13{clip-path:url(#SVGID_26_);fill-rule:evenodd;clip-rule:evenodd;fill:#FFFFFF;}
	.st14{clip-path:url(#SVGID_30_);}
	.st15{clip-path:url(#SVGID_34_);}
	.st16{clip-path:url(#SVGID_34_);fill-rule:evenodd;clip-rule:evenodd;fill:#FFFFFF;}
	.st17{clip-path:url(#SVGID_38_);}
	.st18{clip-path:url(#SVGID_42_);}
	.st19{clip-path:url(#SVGID_42_);fill-rule:evenodd;clip-rule:evenodd;fill:#FFFFFF;}
	.st20{clip-path:url(#SVGID_46_);}
	.st21{clip-path:url(#SVGID_46_);fill-rule:evenodd;clip-rule:evenodd;fill:#9EBF6C;}
	.st22{clip-path:url(#SVGID_50_);}
	.st23{clip-path:url(#SVGID_54_);}
	.st24{clip-path:url(#SVGID_54_);fill-rule:evenodd;clip-rule:evenodd;fill:#FFFFFF;}
	.st25{clip-path:url(#SVGID_58_);}
	.st26{clip-path:url(#SVGID_66_);}
	.st27{clip-path:url(#SVGID_66_);fill-rule:evenodd;clip-rule:evenodd;fill:#CC5662;}
	.st28{clip-path:url(#SVGID_70_);}
	.st29{clip-path:url(#SVGID_78_);}
	.st30{clip-path:url(#SVGID_82_);}
	.st31{clip-path:url(#SVGID_86_);}
	.st32{clip-path:url(#SVGID_90_);}
	.st33{clip-path:url(#SVGID_94_);}
	.st34{clip-path:url(#SVGID_98_);}
	.st35{clip-path:url(#SVGID_102_);}
	.st36{clip-path:url(#SVGID_106_);}
	.st37{clip-path:url(#SVGID_110_);}
	.st38{clip-path:url(#SVGID_114_);}
	.st39{clip-path:url(#SVGID_120_);}
	.st40{clip-path:url(#SVGID_126_);}
	.st41{clip-path:url(#SVGID_130_);}
	.st42{fill:#231815;}
	.st43{fill-rule:evenodd;clip-rule:evenodd;fill:#30A0AF;}
	.st44{fill:#221815;}
	.st45{fill-rule:evenodd;clip-rule:evenodd;fill:#9EBF6C;}
</style>
<title>logo</title>
<g>
	<path class="st0" d="M365,199.7h-17.9v-25.8h4.5c0.9-1.2,1.7-3.1,2.5-5.3l6.3,1.2c-0.7,1.6-1.5,3-2.2,4.2h6.8V199.7z"/>
	<polygon class="st0" points="269.4,186.8 300,198.1 306.5,180.6 275.9,169.3 	"/>
	<path class="st1" d="M108.4,149.3l-70.8,18.2l10.6,41.3l9.1-2.3l-1.2-4.5l52.6-13.5l1.2,4.4l9-2.3L108.4,149.3z M54,193.3l-5-19.5
		l52.6-13.6l5,19.5L54,193.3z"/>
	<path class="st2" d="M152.1,87.1L152.1,87.1L152.1,87.1l-15-6.4l-1,0.8c-6.8,5.4-15.3,8.4-23.9,8.4c-21.3,0-38.6-17.4-38.6-38.8
		c0-0.1,0-0.2,0-0.3c0.1-10.3,4.1-19.9,11.4-27.1c7.2-7.2,16.8-11.2,27-11.2c0,0,0.1,0,0.1,0c21.3,0,38.6,17.4,38.6,38.8
		c0,4.4-0.7,8.7-2.2,12.9l-0.2,0.5L152.1,87.1C152.1,87.1,152.1,87.1,152.1,87.1z"/>
	<rect x="195.9" y="127.7" class="st3" width="20.4" height="18.9"/>
	<path class="st4" d="M240.1,55.2c5.9,12.3,12.2,21.2,18.6,26.9l-2.8,9.6l-12.5-0.9c5,6.6,10.1,12,15.6,16.3l-2.2,9.7
		c-8.2-0.9-16.7-2.1-25.4-3.6l-1,4.4l-8.6-3.4c1-4.9,3.2-11.1,6.5-18.7l8.2,3.7c-1.1,2.4-1.7,3.9-1.8,4.7c4.7,0.9,8.2,1.5,10.3,1.6
		c-8.8-8.5-16.4-18.5-22.8-30.1l8.7-4.7c2.2,4.5,4.1,7.7,5.5,9.5c2.3,0.6,5.3,0.9,9.3,0.9c-4.7-5.5-9.7-12.4-14.9-20.8L240.1,55.2z
		 M208.1,66.1c0.9,4.4,1.9,10.8,2.8,18.8h9v17.6h-25.7V84.9h8.3c-0.3-3.6-0.9-7.9-1.8-13.1L208.1,66.1z M179.3,88.4l7.9,2.8
		c-4.5,6.5-8.8,11.7-12.9,15.5c0.5,0,1,0,1.5,0c2,0,4-0.2,5.9-0.6l4.4-6.3l7.6,3.6c-5.8,7.7-11.9,14.2-18.6,19.3c3-0.1,5.9-0.4,9-1
		c-0.6-1.7-0.9-2.8-1.2-3.6l6.6-2.1c2.7,6.1,4.3,10.3,5,12.7l-7,2.3c-0.1-0.9-0.4-1.7-0.8-2.7c-4.8,0.4-12,1.2-21.6,2.5l-2.5-6.9
		c4.1-2.6,8.3-6.1,12.8-10.6c-5.3,0.5-8.3,0.7-8.9,0.7l-2.8-6.7C169.4,102.8,174.6,96.5,179.3,88.4z M134.9,103.3
		c8,5.4,14.5,11.1,19.4,16.9l-10.5,8.4c-5.7-6.1-12.2-11.7-19.4-16.8L134.9,103.3z M81.2,103.8c18.6,8.9,33.8,18.3,45.5,28.3
		l-7.6,10.5c-3.4-3.1-7-6.1-10.9-8.9c-31.2,12.8-60.5,23.3-87.9,31.7l-5.5-9.8c10.9-7.2,20.3-24.1,28.2-50.5l13.4-1
		c-4.7,15.8-11.2,30.6-19.8,44.3c16.2-5.2,36.5-12.5,60.7-22c-6.8-4.3-14.7-8.5-23.8-12.5L81.2,103.8z M195.9,113.2h20.6v-6.4h-20.6
		V113.2z M195.9,123.6h20.6v-6.3h-20.6V123.6z M275.2,119.9c3.4,7.1,5.8,13.7,6.9,19.6l-13.7,2.9c-2.5-8.9-4.7-15.6-6.7-20
		L275.2,119.9z M226.8,120.8l12.5,1.9c-1.2,8.5-3,15.5-5.2,20.8l-13.3-3.1C223.7,134.9,225.6,128.3,226.8,120.8z M255.7,121.5
		c1.9,5.1,3.1,11.7,3.8,19.8l-13.8,2.2c0.6-3.9-0.3-10.8-2.7-20.8L255.7,121.5z M195.9,146.6h20.4v-18.9h-20.4V146.6z M202.7,140.2
		h6.6v-6.1h-6.6V140.2z M190.6,132.1c1.4,4.7,2.4,8.9,3.1,12.7l-7.1,1.7c-0.4-4.4-1.4-8.7-2.8-12.8L190.6,132.1z M164.5,132.2
		l7.1,1.6c-1.3,5.5-3.1,10.4-5.2,14.7l-7.4-1.8C162,140.3,163.8,135.4,164.5,132.2z M179.9,133.1c1.1,3.6,1.8,8.4,2.2,14.4l-7.4,1.4
		c0-4.8-0.5-9.6-1.5-14.5L179.9,133.1z M132.1,138.7c7.1,4.9,13.5,10.4,19.2,16.8l-10.5,9.1c-7.5-8.1-13.7-13.7-18.6-16.9
		L132.1,138.7z M296.8,143.7l6.6,1.2c0.7,2,1.2,24.4,1.5,25.9l15.2,6.8l-1.7,3.8l-51.6-22.3l1.7-3.9l22.1,9.6
		C290.2,163.9,297.3,145.2,296.8,143.7z M377.5,147.1c4.5,6.3,9.2,10.7,14.1,13.4l-0.4,6.6l-9.6,4.1c4.4,3.6,9,6.2,13.5,7.6
		l-0.1,6.6c-6.3,3.1-12.6,5.7-18.7,8c-0.1,0.4-0.1,1.9-0.2,4.4l-6.8,0.7c0.1-5.3,0.9-10.9,2.3-16.8l6.6-0.6
		c-0.4,1.7-0.7,3.3-0.8,4.5c2.2-0.6,4.5-1.5,6.9-2.8c-7.5-3.6-14.3-8.7-20.3-15.3l6.8-6.3c1.2,1.4,2.9,3.1,5.1,5.1
		c2.7-0.9,4.8-1.8,6.3-2.5c-4.7-3.1-8.5-6.7-11.5-10.9L377.5,147.1z M108.4,149.3l10.6,41.3l-9,2.3l-1.2-4.4L56.2,202l1.2,4.5
		l-9.1,2.3l-10.6-41.3L108.4,149.3z M54,193.3l52.6-13.6l-5-19.5L49,173.9L54,193.3z M244.8,155.2v37.3h-71.6l-2.5,10.6h79.4
		c-0.3,14.9-1.8,24.9-4.6,30c-2.7,5.2-6.6,7.8-11.8,7.8h-34.4l-3.3-14.8h35.8c2.1,0,3.4-3.1,4-9.2h-81.6l8.1-38.5h69.5v-9.7h-76.6
		v-13.6H244.8z M336.3,165.4l5.6,3c-2.9,3.7-6.5,7.2-10.9,10.4c1.3,0.3,2.9,0.5,4.7,0.8c2-1.7,3.6-3.4,5-5.2l5.3,3.7
		c-6.6,6.8-12.7,11.5-18.2,14.4c2.2,0.5,4.2,0.8,5.9,0.9c0.1-0.8,0.1-1.9,0-3.1l5.3-0.1c0.2,3.8,0.1,7.7-0.2,11.7l-5.3,0.4
		c0.1-0.9,0.2-2,0.3-3.6c-5.7-0.5-10.5-1.2-14.4-2l0.4-5c3.8-1.9,7.4-4.4,11.1-7.4c-0.6-0.2-3-0.6-7.3-1.3l0.5-5.1
		C328.1,174.8,332.3,170.7,336.3,165.4z M354.1,168.5l6.3,1.2c-0.7,1.6-1.5,3-2.2,4.2h6.8v25.8h-17.9v-25.8h4.5
		C352.5,172.6,353.3,170.8,354.1,168.5z M352.7,184.3h6.5v-5.4h-6.5V184.3z M352.7,194.7h6.5v-5.8h-6.5V194.7z M275.9,169.3
		l30.5,11.4l-6.5,17.5l-30.5-11.4L275.9,169.3z M297.9,190.7l2.1-5.7l-22-8.2l-2.1,5.8L297.9,190.7z M139.8,173.1l13.3,11.5
		c-5.9,30.3-12.2,56.5-18.9,78.6l-12.5-13.9C128.9,226.6,134.9,201.2,139.8,173.1z M434.2,182.6c1.8,3.1,3.1,5.8,3.8,8.2l7.2-0.3
		l0.2,5.8l-11.9,0.4c0.1,2.1,0.2,4.4,0.1,6.8l11.5-0.4c0.3,6.5,0.4,12.5,0.2,18.2c-0.2,5.7-0.6,9.1-1.2,10.3c-0.6,1.2-1.7,2-3.1,2.8
		c-1.5,0.7-4,0.9-7.4,0.9l-1.7-5.5c0.5,0,1,0,1.4,0c2.1,0,3.4-0.1,3.8-0.4c0.6-0.3,0.9-0.7,1.2-1.2c0.2-0.6,0.4-2.7,0.5-6.5
		c0.1-3.9,0.2-8.2,0.1-13l-5.3,0.2c0,11.7-2.6,20.6-7.9,26.4l-5.2-4.2c2.6-3.1,4.5-6.9,5.4-11.5c1-4.6,1.3-12.2,1-22.7l-5,0.1
		l-0.2-5.7l9-0.3c-0.6-1.8-1.6-3.9-3.1-6.3L434.2,182.6z M409.5,183.6c3.6,2.4,6.9,5.5,9.8,9.1l-4.2,4.1c-2.8-3.4-5.9-6.3-9.3-8.7
		L409.5,183.6z M268.6,192.4l37.2,14.9l-2.8,6.9c-6.4,2-12.5,3-18.2,3.1l-0.4,0.9l20.1,8.1l-2.9,7.2l-20.1-8L279,232
		c-1,2.5-2,4.3-3.2,5.4c-1,1-2.1,1.5-3.1,1.5c-0.1,0-0.1,0-0.2,0c-1-0.1-2.9-0.7-5.7-1.8c-1.7-0.7-3.1-1.3-4.1-1.8l1.4-8.6
		c1.6,0.9,3.3,1.7,5,2.3c2.3,0.9,3.8,1.4,4.4,1.4c0.1,0,0.1,0,0.2,0c0.4-0.1,0.7-0.6,1-1.3l2.3-5.5l-21.5-8.6l2.8-7.3l21.5,8.7
		l2.4-6c1.3,0.1,2.5,0.1,3.7,0.1c2.3,0,4.6-0.1,6.8-0.5l-26.9-10.8L268.6,192.4z M455.6,192.7l5.2,1.2c-0.8,1.8-1.6,3.5-2.6,5
		l12.2-0.4l0.1,4.5l-15.2,0.5c-0.8,1.2-2,2.5-3.4,4.1l16.8-0.6l0.1,4.6c-1.8,2.1-3.7,4-5.6,5.8v1.2l7.9-0.2l0.1,4.5l-7.9,0.2
		l0.2,6.1c0.1,2.4-0.7,3.9-2.4,4.6c-1.7,0.6-4.7,0.9-9,0.9l-1.8-4.4c2.6,0,4.4-0.1,5.5-0.1c1.1-0.1,1.7-0.5,1.6-1.2l-0.1-5.6
		l-8.2,0.2L449,219l8.2-0.2l-0.1-2.3c2-1.7,3.6-3.3,4.8-4.7l-10.9,0.4l-0.1-3.6c-0.7,0.7-1.3,1.2-2,1.6l-3.3-4
		C449.3,203.2,452.7,198.7,455.6,192.7z M417.5,198.3l0.2,6c-2.1,4.6-4.5,9-6.9,13.2l8-0.3l0.1,6.1c-0.7,3.7-1.6,7.1-2.8,10.2
		c3.7,5,9.7,7.5,18.3,7.5c0.5,0,0.9,0,1.4,0c13.2-0.4,39.3-1.3,45.3-1.8l-1.8,6.3c-2.5,0.1-27.8,0.9-42.8,1.5c-0.5,0-1,0-1.5,0
		c-9.8,0-16.8-2.6-21.2-7.9c-1.6,3.5-3.7,6.8-6.2,9.9l-4.7-3.8c5.4-6.8,8.8-14,10.1-21.7l-9.1,0.3l-0.2-6.2c2.8-3.8,5.2-8.1,7.5-13
		l-8.8,0.3l-0.1-6L417.5,198.3z M352.7,202.7l1.5,7l27-5.8l1.7,7.8l-1.1,0.2l-26,5.5l5.5,25.4l-8.5,1.8l-5.4-25.4l-27.3,5.8
		l-1.7-7.8l27.3-5.8l-1.5-7L352.7,202.7z M363.9,218.5c8.8,2.7,16.6,6.1,23.5,10.4l-1.5,8.7c-6-3.9-13.7-7.5-23.3-10.6L363.9,218.5z
		 M340.3,223.7l5.4,13c-5.7,5.2-12.9,7.9-21.7,7.9c-0.1,0-0.2,0-0.4,0l-3.9-14.5c0.4,0,0.8,0,1.2,0
		C328.7,230.1,335.2,228,340.3,223.7z M240.1,47.7c0.8,0,1.6,0.1,2.4,0.4c1.9,0.6,3.5,2,4.4,3.9c5.3,11.1,11,19.4,16.8,24.5
		c2.2,1.9,3.1,5,2.2,7.8l-2.8,9.6c-0.5,1.8-1.7,3.2-3.1,4.2c1.2,1.1,2.4,2.1,3.6,3c2.3,1.8,3.4,4.8,2.7,7.6l-1.2,5.4l8.7-1.6
		c0.5-0.1,0.9-0.1,1.4-0.1c2.9,0,5.5,1.6,6.8,4.3c3.7,7.8,6.3,15,7.5,21.4c0.8,4-1.8,8-5.8,8.8l-10.5,2.2l12.6,5.5
		c0-0.1,0.1-0.2,0.1-0.4c1-3.1,2.9-8.6,3.4-10.6c0-1.7,0.6-3.5,1.8-4.8c1.4-1.7,3.6-2.7,5.8-2.7c0.5,0,0.9,0,1.4,0.1l6.6,1.2
		c2.7,0.5,4.9,2.4,5.7,5c0.6,1.8,0.8,3.9,1.4,19.2c0.1,1.3,0.1,2.8,0.2,4.1l9.5,4.2c3-2.4,5.9-5.5,8.7-9.2c1.5-1.9,3.7-3,6-3
		c1.2,0,2.4,0.3,3.5,0.9l5.6,3c1,0.6,1.9,1.3,2.6,2.3c1.4-1.9,3.6-3,6-3c0.5,0,0.9,0,1.4,0.1l3.7,0.7l5.2-4.8
		c-2.1-3.2-1.4-7.5,1.5-9.9l7-5.8c1.4-1.1,3.1-1.7,4.8-1.7c0.3,0,0.6,0,1,0.1c2.1,0.3,3.9,1.4,5.1,3.1c3.8,5.3,7.7,9.1,11.6,11.2
		c2.6,1.4,4.1,4.2,3.9,7.1l-0.4,6.6c-0.1,1.5-0.6,2.8-1.4,4c0,0,0,0,0,0c3.2,1,5.4,4,5.3,7.4l0,1.1l1.1-1.4c1.5-1.8,3.6-2.7,5.8-2.7
		c1.4,0,2.9,0.4,4.2,1.3c2.4,1.6,4.6,3.4,6.7,5.4c0.1-0.2,0.1-0.5,0.2-0.7c0.8-2.1,2.6-3.8,4.8-4.5l6.6-2c0.7-0.2,1.5-0.3,2.2-0.3
		c2.6,0,5.1,1.4,6.5,3.7c0.9,1.5,1.7,2.9,2.3,4.3l1.9-0.1c0.1,0,0.2,0,0.3,0c1.9,0,3.7,0.7,5.1,2c0.5,0.4,0.9,0.9,1.2,1.4
		c1.2-0.8,2.6-1.2,4.1-1.2c0.6,0,1.2,0.1,1.8,0.2l5.2,1.2c2.2,0.5,4,2,5,4c0.1,0.1,0.1,0.3,0.2,0.4l2.3-0.1c0.1,0,0.2,0,0.3,0
		c1.9,0,3.7,0.7,5.1,2c1.5,1.4,2.3,3.3,2.4,5.3l0.1,4.5c0.1,1.9-0.6,3.7-1.7,5l0.1,3.6c0,0.5,0,1-0.1,1.5c1.4,1.3,2.4,3.2,2.4,5.3
		l0.1,4.5c0.1,2-0.7,4-2,5.4c-1.4,1.5-3.3,2.3-5.3,2.4l-0.4,0c0,0.6-0.1,1.1-0.2,1.7c4.4-0.2,7.9-0.3,9.6-0.5c0.1,0,0.3,0,0.4,0
		c0.1,0,0.1,0,0.2,0c0.1,0,0.1,0,0.2,0c4.1,0.1,7.4,3.4,7.4,7.5c0,0.8-0.1,1.6-0.4,2.3l-1.8,6.1c-0.9,3.1-3.6,5.3-6.8,5.4
		c-1.6,0.1-10.4,0.4-24.7,0.9c-6.4,0.2-13,0.4-18.3,0.6c0,0,0,0-0.1,0c-0.6,0-1.2,0-1.8,0c-7.5,0-13.9-1.4-19-4.1
		c-0.8,1.1-1.6,2.2-2.4,3.3c-1.2,1.6-3.1,2.6-5.1,2.8c-0.3,0-0.6,0-0.8,0c-1.7,0-3.4-0.6-4.7-1.7l-4.7-3.8
		c-3.2-2.6-3.7-7.3-1.2-10.5c2.4-3.1,4.4-6.2,5.8-9.3c-3.6-0.5-6.3-3.5-6.5-7.2l-0.2-6.2c-0.1-1.7,0.4-3.3,1.4-4.7
		c0.4-0.5,0.8-1.1,1.2-1.7c-0.6-0.3-1.1-0.7-1.6-1.1c-1.5-1.4-2.3-3.3-2.4-5.3l-0.1-6c-0.1-3.2,1.8-5.9,4.5-7.1
		c0-0.1-0.1-0.2-0.1-0.3c-0.3,0.2-0.6,0.4-0.9,0.5c-4,1.9-8.2,3.8-12.6,5.6c1.5,1.1,2.6,2.7,3,4.6l1.7,7.8c0.4,2,0,4-1.1,5.7
		c-0.9,1.4-2.4,2.5-4,3c2.1,1.1,4.2,2.3,6.2,3.5c2.6,1.6,4,4.7,3.5,7.7l-1.5,8.7c-0.4,2.5-2.1,4.6-4.4,5.6c-1,0.4-2,0.6-3,0.6
		c-1.5,0-2.9-0.4-4.1-1.2c-3.9-2.6-8.6-4.9-14-7.1l1,4.6c0.4,2,0,4-1,5.7c-1.1,1.7-2.8,2.9-4.8,3.3l-8.5,1.8c-0.5,0.1-1,0.2-1.6,0.2
		c-1.4,0-2.9-0.4-4.1-1.2c-1.7-1.1-2.8-2.8-3.3-4.7c-6.1,3.8-13.3,5.7-21.4,5.7c-0.1,0-0.3,0-0.4,0c-3.4,0-6.3-2.3-7.2-5.6
		l-3.9-14.5c-0.4-1.7-0.3-3.4,0.3-4.9c0-0.1-0.1-0.2-0.1-0.3L311,219c-0.4-2,0-4,1-5.7c1.1-1.7,2.8-2.9,4.7-3.3l11.3-2.4
		c-0.1-0.1-0.2-0.2-0.4-0.4c-0.5-0.5-0.9-1.2-1.2-1.8c-3.3-0.4-6.3-0.9-8.9-1.4c-3.7-0.8-6.3-4.2-6-7.9l0.4-5
		c0.1-1.3,0.5-2.6,1.2-3.6l-1.2-0.5l-4.8,12.8l1.3,0.5c1.9,0.7,3.3,2.2,4.1,4c0.8,1.8,0.8,3.9,0.1,5.8l-2.8,6.9
		c-0.4,1-1,1.9-1.8,2.7c1.5,0.8,2.6,2.1,3.3,3.7c0.8,1.8,0.8,3.9,0.1,5.8l-2.9,7.2c-1.2,2.9-4,4.7-7,4.7c-0.9,0-1.9-0.2-2.8-0.5
		l-13.2-5.2c-1.5,3.4-2.9,5.8-4.8,7.5c-3.1,3-6.2,3.7-8.3,3.7c-0.2,0-0.5,0-0.7,0c0,0,0,0-0.1,0c-1.9-0.1-4.3-0.8-7.9-2.3
		c-0.1,0-0.2-0.1-0.2-0.1l-0.9-0.4c-1.4-0.6-2.5-1.1-3.5-1.6c-2.9-1.5-4.6-4.7-4.1-7.9l1.4-8.6c0.1-0.6,0.3-1.2,0.5-1.7l-1-0.4
		c-0.9,5.7-2.2,10.1-4,13.3c-4,7.6-10.5,11.8-18.5,11.8h-34.4c-3.5,0-6.6-2.5-7.4-5.9l-3.3-14.8c-0.2-1.1-0.2-2.3,0-3.3h-34.5
		c-0.6,0-1.3-0.1-1.9-0.2c-3.5,14.8-7.1,28.6-10.9,41.2c-0.8,2.6-2.9,4.6-5.6,5.2c-0.5,0.1-1.1,0.2-1.6,0.2c-2.1,0-4.2-0.9-5.6-2.5
		l-12.5-13.9c-1.8-2-2.4-4.7-1.6-7.3c7-22.3,13-47.6,17.8-75.3c0.2-1.3,0.8-2.6,1.7-3.6c-6.4-6.8-11.8-11.6-15.9-14.3
		c-0.3-0.2-0.6-0.5-0.9-0.7l9.2,35.5c1,4-1.4,8.1-5.4,9.2l-9,2.3c-0.6,0.2-1.3,0.2-1.9,0.2c-2.4,0-4.6-1.1-6-3l-39.2,10
		c-0.1,1-0.5,1.9-1,2.8c-1,1.7-2.7,3-4.6,3.5l-9.1,2.3c-0.6,0.2-1.3,0.2-1.9,0.2c-3.4,0-6.4-2.3-7.3-5.7l-10.5-40.6
		c-2.7,0.8-5.3,1.7-8,2.5c-0.7,0.2-1.5,0.3-2.2,0.3c-2.7,0-5.2-1.4-6.6-3.8l-5.5-9.8c-1.9-3.4-0.9-7.8,2.4-10
		c11.7-7.7,20.1-29.5,25.1-46.4c0.9-3,3.5-5.1,6.6-5.4l13.4-1c0.2,0,0.4,0,0.6,0c2.3,0,4.4,1,5.9,2.8c1.6,1.9,2.1,4.5,1.4,6.9
		c-3,10-6.7,19.7-11.1,28.9c8.4-3,17.5-6.3,27.2-10c-2.9-1.5-6-2.9-9.2-4.3c-2.1-0.9-3.7-2.8-4.3-5c-0.6-2.2,0.7-4.5,1.8-6.4
		c2-3.2,4.3-6.3,7-9.4c2.5-3.2,4.4-4.8,5.7-4.8c1.9,0,5.1,1.9,5.1,1.9s9.6,4.8,28.8,14.3c1,0,20.2-17.5,20.2-17.5s9.7,7.6,15.4,12
		l0,0c2,0,4,0.2,5.9,0.6c1-1.4,2.1-2.8,2.1-2.8l17.8-21.8c1-0.5,2.1-0.7,3.3-0.7c0.8,0,1.7,0.1,2.5,0.4l5,1.7
		c0.8-3.2,3.7-5.5,7.1-5.6c-0.2-1.4-0.5-2.8-0.7-4.2c-0.5-2.8,0.6-5.6,2.9-7.4l7.5-5.7c1.3-1,2.9-1.5,4.5-1.5c0.9,0,1.8,0.2,2.6,0.5
		c2.4,0.9,4.2,3,4.7,5.5c0.4,1.7,0.7,3.7,1.1,5.9c0.6-0.7,1.3-1.3,2.1-1.8l6.4-3.5c-0.2-0.4-0.5-0.7-0.7-1.1c-1.1-1.8-1.4-3.9-0.9-6
		c0.6-2,1.9-3.7,3.8-4.7l9.3-4.9C237.7,48,238.9,47.7,240.1,47.7z M133.6,129c1.6,1.5,3.2,3.1,4.7,4.7c0,0,0.1,0.1,0.1,0.1
		c-0.7-0.5-1.3-0.9-2-1.4c-0.7-0.5-1.4-0.8-2.2-1C134.1,130.6,133.9,129.8,133.6,129z M156.2,128.3l0.9,2.5
		c-0.3,1.6-1.4,5.2-4.9,12.8c-0.2,0.4-0.4,0.9-0.5,1.4c-3.5-3.4-7.3-6.6-11.3-9.6c1.1,0.5,2.2,0.8,3.4,0.8c2.2-0.4,3.8-0.9,4.7-1.6
		L156.2,128.3z M250.5,150.3l10.1-1.6c0.9-0.1,1.7-0.4,2.5-0.9c0.4,0.4,0.8,0.7,1.3,1c-1.3,0.8-2.3,2-3,3.4l-1.7,3.9
		c-0.8,1.8-0.8,3.9-0.1,5.8c0.7,1.9,2.2,3.4,4,4.1l4.6,2l-6,16.1c-0.5,1.5-0.6,3-0.2,4.4c-0.2,0.3-0.3,0.6-0.5,1l-2.8,6.8
		c-0.5,1.2-0.6,2.5-0.5,3.7c0,0-0.1,0-0.1,0c-0.4,0-0.8,0-1.2,0.1c-1-2.3-3-4-5.5-4.5c0.5-1,0.7-2.1,0.7-3.2v-37.3
		C252.3,153.3,251.7,151.6,250.5,150.3z M146.9,169.3l0.8-0.7v0.2c0,0.5,0,0.9,0.1,1.4L146.9,169.3z M58.2,179.3l38-9.8l1.3,4.9
		l-38,9.8L58.2,179.3z M155,176.4L155,176.4C155,176.3,155,176.3,155,176.4C155.1,176.3,155,176.3,155,176.4z"/>
	<g>
		<defs>
			<path id="SVGID_1_" d="M106.6,179.8l-5-19.5L49,173.9l5,19.5L106.6,179.8z M119.1,190.6l-9,2.3l-1.2-4.4L56.2,202l1.2,4.5
				l-9.1,2.3l-10.6-41.3l70.8-18.2L119.1,190.6z"/>
		</defs>
		<clipPath id="SVGID_2_">
			<use xlink:href="#SVGID_1_"  style="overflow:visible;"/>
		</clipPath>
		<g class="st5">
			<defs>
				<rect id="SVGID_3_" x="-26.6" y="-26.8" width="548.9" height="357.9"/>
			</defs>
			<clipPath id="SVGID_4_">
				<use xlink:href="#SVGID_3_"  style="overflow:visible;"/>
			</clipPath>
		</g>
	</g>
	<g>
		<defs>
			<path id="SVGID_5_" d="M126.7,132.1l-7.6,10.5c-3.4-3.1-7-6.1-10.9-8.9c-31.2,12.8-60.5,23.3-87.9,31.7l-5.5-9.8
				c10.9-7.2,20.3-24.1,28.2-50.5l13.4-1c-4.7,15.8-11.2,30.6-19.8,44.3c16.2-5.2,36.5-12.5,60.7-22c-6.8-4.3-14.6-8.5-23.8-12.5
				l7.7-10.1C99.8,112.7,115,122.1,126.7,132.1"/>
		</defs>
		<clipPath id="SVGID_6_">
			<use xlink:href="#SVGID_5_"  style="overflow:visible;"/>
		</clipPath>
		<g class="st6">
			<defs>
				<rect id="SVGID_7_" x="-26.6" y="-26.8" width="548.9" height="357.9"/>
			</defs>
			<clipPath id="SVGID_8_">
				<use xlink:href="#SVGID_7_"  style="overflow:visible;"/>
			</clipPath>
		</g>
	</g>
	<g>
		<defs>
			<path id="SVGID_9_" d="M153.1,184.6c-5.9,30.3-12.2,56.5-18.9,78.6l-12.5-13.9c7.1-22.8,13.1-48.2,18-76.2L153.1,184.6z"/>
		</defs>
		<clipPath id="SVGID_10_">
			<use xlink:href="#SVGID_9_"  style="overflow:visible;"/>
		</clipPath>
		<g class="st7">
			<defs>
				<rect id="SVGID_11_" x="-26.6" y="-26.8" width="548.9" height="357.9"/>
			</defs>
			<clipPath id="SVGID_12_">
				<use xlink:href="#SVGID_11_"  style="overflow:visible;"/>
			</clipPath>
		</g>
	</g>
	<g>
		<defs>
			<path id="SVGID_13_" d="M250.1,203.2c-0.3,14.9-1.8,24.9-4.6,30c-2.7,5.2-6.6,7.8-11.8,7.8h-34.4l-3.3-14.8h35.8
				c2.1,0,3.4-3.1,4-9.2h-81.6l8.1-38.5h69.5v-9.7h-76.6v-13.6h89.6v37.3h-71.6l-2.5,10.6H250.1z"/>
		</defs>
		<clipPath id="SVGID_14_">
			<use xlink:href="#SVGID_13_"  style="overflow:visible;"/>
		</clipPath>
		<g class="st8">
			<defs>
				<rect id="SVGID_15_" x="-26.6" y="-26.8" width="548.9" height="357.9"/>
			</defs>
			<clipPath id="SVGID_16_">
				<use xlink:href="#SVGID_15_"  style="overflow:visible;"/>
			</clipPath>
		</g>
		<path class="st9" d="M250.1,203.2c-0.3,14.9-1.8,24.9-4.6,30c-2.7,5.2-6.6,7.8-11.8,7.8h-34.4l-3.3-14.8h35.8c2.1,0,3.4-3.1,4-9.2
			h-81.6l8.1-38.5h69.5v-9.7h-76.6v-13.6h89.6v37.3h-71.6l-2.5,10.6H250.1z"/>
	</g>
	<g>
		<defs>
			<path id="SVGID_17_" d="M239.3,122.7c-1.2,8.5-3,15.5-5.2,20.8l-13.3-3.1c2.8-5.5,4.8-12.1,6-19.6L239.3,122.7z"/>
		</defs>
		<clipPath id="SVGID_18_">
			<use xlink:href="#SVGID_17_"  style="overflow:visible;"/>
		</clipPath>
		<g class="st10">
			<defs>
				<rect id="SVGID_19_" x="-26.6" y="-26.8" width="548.9" height="357.9"/>
			</defs>
			<clipPath id="SVGID_20_">
				<use xlink:href="#SVGID_19_"  style="overflow:visible;"/>
			</clipPath>
		</g>
	</g>
	<g>
		<defs>
			<path id="SVGID_21_" d="M282.1,139.5l-13.7,2.9c-2.5-8.9-4.7-15.6-6.7-20l13.5-2.5C278.6,127.1,280.9,133.6,282.1,139.5"/>
		</defs>
		<clipPath id="SVGID_22_">
			<use xlink:href="#SVGID_21_"  style="overflow:visible;"/>
		</clipPath>
		<g class="st11">
			<defs>
				<rect id="SVGID_23_" x="-26.6" y="-26.8" width="548.9" height="357.9"/>
			</defs>
			<clipPath id="SVGID_24_">
				<use xlink:href="#SVGID_23_"  style="overflow:visible;"/>
			</clipPath>
		</g>
	</g>
	<g>
		<defs>
			<path id="SVGID_25_" d="M151.3,155.4l-10.5,9.1c-7.5-8.1-13.7-13.7-18.6-16.9l9.8-9C139.2,143.5,145.6,149.1,151.3,155.4"/>
		</defs>
		<clipPath id="SVGID_26_">
			<use xlink:href="#SVGID_25_"  style="overflow:visible;"/>
		</clipPath>
		<g class="st12">
			<defs>
				<rect id="SVGID_27_" x="-26.6" y="-26.8" width="548.9" height="357.9"/>
			</defs>
			<clipPath id="SVGID_28_">
				<use xlink:href="#SVGID_27_"  style="overflow:visible;"/>
			</clipPath>
		</g>
		<path class="st13" d="M151.3,155.4l-10.5,9.1c-7.5-8.1-13.7-13.7-18.6-16.9l9.8-9C139.2,143.5,145.6,149.1,151.3,155.4"/>
	</g>
	<g>
		<defs>
			<path id="SVGID_29_" d="M221.8,114.2l8.6,3.4l1-4.4c8.7,1.5,17.2,2.7,25.4,3.6l2.2-9.7c-5.5-4.2-10.6-9.6-15.6-16.3l12.5,0.9
				l2.8-9.6c-6.4-5.7-12.7-14.6-18.6-26.9l-9.3,4.9c5.2,8.5,10.2,15.4,14.9,20.8c-3.9,0-7-0.3-9.3-0.9c-1.5-1.8-3.4-5-5.5-9.5
				l-8.7,4.7c6.4,11.6,14,21.6,22.8,30.1c-2.2-0.1-5.6-0.7-10.3-1.6c0.1-0.7,0.7-2.3,1.8-4.7l-8.2-3.7
				C225,103,222.8,109.3,221.8,114.2"/>
		</defs>
		<clipPath id="SVGID_30_">
			<use xlink:href="#SVGID_29_"  style="overflow:visible;"/>
		</clipPath>
		<g class="st14">
			<defs>
				<rect id="SVGID_31_" x="-26.6" y="-26.8" width="548.9" height="357.9"/>
			</defs>
			<clipPath id="SVGID_32_">
				<use xlink:href="#SVGID_31_"  style="overflow:visible;"/>
			</clipPath>
		</g>
	</g>
	<g>
		<defs>
			<path id="SVGID_33_" d="M219.8,102.5h-25.7V84.9h8.3c-0.3-3.6-0.9-7.9-1.8-13.1l7.5-5.7c0.9,4.4,1.9,10.8,2.8,18.8h9V102.5z"/>
		</defs>
		<clipPath id="SVGID_34_">
			<use xlink:href="#SVGID_33_"  style="overflow:visible;"/>
		</clipPath>
		<g class="st15">
			<defs>
				<rect id="SVGID_35_" x="-26.6" y="-26.8" width="548.9" height="357.9"/>
			</defs>
			<clipPath id="SVGID_36_">
				<use xlink:href="#SVGID_35_"  style="overflow:visible;"/>
			</clipPath>
		</g>
		<path class="st16" d="M219.8,102.5h-25.7V84.9h8.3c-0.3-3.6-0.9-7.9-1.8-13.1l7.5-5.7c0.9,4.4,1.9,10.8,2.8,18.8h9V102.5z"/>
	</g>
	<g>
		<defs>
			<path id="SVGID_37_" d="M345.7,236.7c-5.8,5.2-13.1,8-22.1,7.9l-3.9-14.5c8.4,0.2,15.2-1.9,20.6-6.3L345.7,236.7z"/>
		</defs>
		<clipPath id="SVGID_38_">
			<use xlink:href="#SVGID_37_"  style="overflow:visible;"/>
		</clipPath>
		<g class="st17">
			<defs>
				<rect id="SVGID_39_" x="-26.6" y="-26.8" width="548.9" height="357.9"/>
			</defs>
			<clipPath id="SVGID_40_">
				<use xlink:href="#SVGID_39_"  style="overflow:visible;"/>
			</clipPath>
		</g>
	</g>
	<g>
		<defs>
			<path id="SVGID_41_" d="M159,146.7l7.4,1.8c2.1-4.3,3.9-9.2,5.2-14.7l-7.1-1.6C163.8,135.4,162,140.3,159,146.7"/>
		</defs>
		<clipPath id="SVGID_42_">
			<use xlink:href="#SVGID_41_"  style="overflow:visible;"/>
		</clipPath>
		<g class="st18">
			<defs>
				<rect id="SVGID_43_" x="-26.6" y="-26.8" width="548.9" height="357.9"/>
			</defs>
			<clipPath id="SVGID_44_">
				<use xlink:href="#SVGID_43_"  style="overflow:visible;"/>
			</clipPath>
		</g>
		<path class="st19" d="M159,146.7l7.4,1.8c2.1-4.3,3.9-9.2,5.2-14.7l-7.1-1.6C163.8,135.4,162,140.3,159,146.7"/>
	</g>
	<g>
		<defs>
			<path id="SVGID_45_" d="M174.7,148.9l7.4-1.4c-0.4-6-1.1-10.7-2.2-14.4l-6.8,1.2C174.2,139.2,174.7,144,174.7,148.9"/>
		</defs>
		<clipPath id="SVGID_46_">
			<use xlink:href="#SVGID_45_"  style="overflow:visible;"/>
		</clipPath>
		<g class="st20">
			<defs>
				<rect id="SVGID_47_" x="-26.6" y="-26.8" width="548.9" height="357.9"/>
			</defs>
			<clipPath id="SVGID_48_">
				<use xlink:href="#SVGID_47_"  style="overflow:visible;"/>
			</clipPath>
		</g>
		<path class="st21" d="M174.7,148.9l7.4-1.4c-0.4-6-1.1-10.7-2.2-14.4l-6.8,1.2C174.2,139.2,174.7,144,174.7,148.9"/>
	</g>
	<g>
		<defs>
			<path id="SVGID_49_" d="M143.8,128.6l10.5-8.4c-4.9-5.8-11.4-11.5-19.4-16.9l-10.5,8.5C131.6,116.9,138.1,122.5,143.8,128.6"/>
		</defs>
		<clipPath id="SVGID_50_">
			<use xlink:href="#SVGID_49_"  style="overflow:visible;"/>
		</clipPath>
		<g class="st22">
			<defs>
				<rect id="SVGID_51_" x="-26.6" y="-26.8" width="548.9" height="357.9"/>
			</defs>
			<clipPath id="SVGID_52_">
				<use xlink:href="#SVGID_51_"  style="overflow:visible;"/>
			</clipPath>
		</g>
	</g>
	<g>
		<defs>
			<path id="SVGID_53_" d="M186.6,146.5l7.1-1.7c-0.7-3.8-1.8-8-3.1-12.7l-6.8,1.6C185.2,137.8,186.2,142.1,186.6,146.5"/>
		</defs>
		<clipPath id="SVGID_54_">
			<use xlink:href="#SVGID_53_"  style="overflow:visible;"/>
		</clipPath>
		<g class="st23">
			<defs>
				<rect id="SVGID_55_" x="-26.6" y="-26.8" width="548.9" height="357.9"/>
			</defs>
			<clipPath id="SVGID_56_">
				<use xlink:href="#SVGID_55_"  style="overflow:visible;"/>
			</clipPath>
		</g>
		<path class="st24" d="M186.6,146.5l7.1-1.7c-0.7-3.8-1.8-8-3.1-12.7l-6.8,1.6C185.2,137.8,186.2,142.1,186.6,146.5"/>
	</g>
	<g>
		<defs>
			<path id="SVGID_57_" d="M259.5,141.3c-0.6-8-1.9-14.7-3.8-19.8l-12.7,1.2c2.4,10,3.3,16.9,2.7,20.8L259.5,141.3z"/>
		</defs>
		<clipPath id="SVGID_58_">
			<use xlink:href="#SVGID_57_"  style="overflow:visible;"/>
		</clipPath>
		<g class="st25">
			<defs>
				<rect id="SVGID_59_" x="-26.6" y="-26.8" width="548.9" height="357.9"/>
			</defs>
			<clipPath id="SVGID_60_">
				<use xlink:href="#SVGID_59_"  style="overflow:visible;"/>
			</clipPath>
		</g>
	</g>
	<g>
		<defs>
			<rect id="SVGID_61_" x="195.9" y="106.8" width="20.6" height="6.4"/>
		</defs>
		<clipPath id="SVGID_62_">
			<use xlink:href="#SVGID_61_"  style="overflow:visible;"/>
		</clipPath>
	</g>
	<g>
		<defs>
			<rect id="SVGID_63_" x="195.9" y="106.8" width="20.6" height="6.4"/>
		</defs>
		<use xlink:href="#SVGID_63_"  style="overflow:visible;fill:#30A0AF;"/>
		<clipPath id="SVGID_64_">
			<use xlink:href="#SVGID_63_"  style="overflow:visible;"/>
		</clipPath>
	</g>
	<g>
		<defs>
			<path id="SVGID_65_" d="M163.7,107.3l2.8,6.7c0.6,0,3.6-0.2,8.9-0.7c-4.4,4.4-8.7,7.9-12.8,10.6l2.5,6.9
				c9.5-1.3,16.8-2.1,21.6-2.5c0.4,0.9,0.7,1.8,0.8,2.7l7-2.3c-0.7-2.4-2.3-6.6-5-12.7l-6.6,2.1c0.3,0.7,0.7,1.9,1.2,3.6
				c-3.1,0.6-6,0.9-9,1c6.6-5.1,12.8-11.6,18.6-19.3l-7.6-3.6l-4.4,6.3c-2,0.4-4,0.6-5.9,0.6c-0.5,0-1,0-1.5,0
				c4.1-3.8,8.4-9,12.9-15.5l-7.9-2.8C174.6,96.5,169.4,102.8,163.7,107.3"/>
		</defs>
		<clipPath id="SVGID_66_">
			<use xlink:href="#SVGID_65_"  style="overflow:visible;"/>
		</clipPath>
		<g class="st26">
			<defs>
				<rect id="SVGID_67_" x="-26.6" y="-26.8" width="548.9" height="357.9"/>
			</defs>
			<clipPath id="SVGID_68_">
				<use xlink:href="#SVGID_67_"  style="overflow:visible;"/>
			</clipPath>
		</g>
		<path class="st27" d="M163.7,107.3l2.8,6.7c0.6,0,3.6-0.2,8.9-0.7c-4.4,4.4-8.7,7.9-12.8,10.6l2.5,6.9c9.5-1.3,16.8-2.1,21.6-2.5
			c0.4,0.9,0.7,1.8,0.8,2.7l7-2.3c-0.7-2.4-2.3-6.6-5-12.7l-6.6,2.1c0.3,0.7,0.7,1.9,1.2,3.6c-3.1,0.6-6,0.9-9,1
			c6.6-5.1,12.8-11.6,18.6-19.3l-7.6-3.6l-4.4,6.3c-2,0.4-4,0.6-5.9,0.6c-0.5,0-1,0-1.5,0c4.1-3.8,8.4-9,12.9-15.5l-7.9-2.8
			C174.6,96.5,169.4,102.8,163.7,107.3"/>
	</g>
	<g>
		<defs>
			<path id="SVGID_69_" d="M195.9,146.6h20.4v-18.9h-20.4V146.6z M202.7,140.2h6.6v-6.1h-6.6V140.2z"/>
		</defs>
		<clipPath id="SVGID_70_">
			<use xlink:href="#SVGID_69_"  style="overflow:visible;"/>
		</clipPath>
		<g class="st28">
			<defs>
				<rect id="SVGID_71_" x="-26.6" y="-26.8" width="548.9" height="357.9"/>
			</defs>
			<clipPath id="SVGID_72_">
				<use xlink:href="#SVGID_71_"  style="overflow:visible;"/>
			</clipPath>
		</g>
	</g>
	<g>
		<defs>
			<rect id="SVGID_73_" x="195.9" y="117.4" width="20.6" height="6.3"/>
		</defs>
		<clipPath id="SVGID_74_">
			<use xlink:href="#SVGID_73_"  style="overflow:visible;"/>
		</clipPath>
	</g>
	<g>
		<defs>
			<rect id="SVGID_75_" x="195.9" y="117.4" width="20.6" height="6.3"/>
		</defs>
		<use xlink:href="#SVGID_75_"  style="overflow:visible;fill:#FFFFFF;"/>
		<clipPath id="SVGID_76_">
			<use xlink:href="#SVGID_75_"  style="overflow:visible;"/>
		</clipPath>
	</g>
	<g>
		<defs>
			<path id="SVGID_77_" d="M450.9,208.5l0.1,3.6l10.9-0.4c-1.2,1.4-2.8,3-4.8,4.7l0.1,2.3L449,219l0.1,4.5l8.2-0.2l0.1,5.6
				c0.1,0.7-0.5,1.2-1.6,1.2c-1.1,0.1-2.9,0.1-5.5,0.1l1.8,4.4c4.3,0,7.3-0.4,9-0.9c1.7-0.7,2.5-2.2,2.4-4.6l-0.2-6.1l7.9-0.2
				l-0.1-4.5l-7.9,0.2v-1.2c1.9-1.8,3.8-3.7,5.6-5.8l-0.1-4.6l-16.8,0.6c1.4-1.5,2.5-2.9,3.4-4.1l15.2-0.5l-0.1-4.5l-12.2,0.4
				c1-1.5,1.8-3.1,2.6-5l-5.2-1.2c-2.9,6-6.3,10.5-9.9,13.4l3.3,4C449.6,209.7,450.3,209.1,450.9,208.5"/>
		</defs>
		<clipPath id="SVGID_78_">
			<use xlink:href="#SVGID_77_"  style="overflow:visible;"/>
		</clipPath>
		<g class="st29">
			<defs>
				<rect id="SVGID_79_" x="-26.6" y="-26.8" width="548.9" height="357.9"/>
			</defs>
			<clipPath id="SVGID_80_">
				<use xlink:href="#SVGID_79_"  style="overflow:visible;"/>
			</clipPath>
		</g>
	</g>
	<g>
		<defs>
			<path id="SVGID_81_" d="M434,240.6c-8.5-0.1-14.2-2.2-17.8-7.3c1.2-3.1,1.9-6.5,2.7-10.2V217l-8.1,0.5c2.5-4.3,4.9-8.6,7-13.2
				l-0.5-6.2l-15.4,0.5l0.3,6.2l8.6-0.3c-2.3,5-4.6,9.1-7.3,12.9l0.2,6.3l9.1-0.2c-1.3,7.8-4.8,15.1-10.2,21.9l5.1,3.6
				c2.5-3.1,4.3-5.9,5.9-9.4c4.3,5.4,11.1,7.8,20.8,7.9c0.5,0,1,0,1.5,0c14.9-0.4,41.1-1.9,43.6-2l1.9-6.5
				C477.4,239.3,461.6,239.8,434,240.6z"/>
		</defs>
		<clipPath id="SVGID_82_">
			<use xlink:href="#SVGID_81_"  style="overflow:visible;"/>
		</clipPath>
		<g class="st30">
			<defs>
				<rect id="SVGID_83_" x="-26.6" y="-26.8" width="548.9" height="357.9"/>
			</defs>
			<clipPath id="SVGID_84_">
				<use xlink:href="#SVGID_83_"  style="overflow:visible;"/>
			</clipPath>
		</g>
	</g>
	<g>
		<defs>
			<path id="SVGID_85_" d="M433.6,208.9l5.3-0.2c0.1,4.8,0,9.1-0.1,13c-0.1,3.8-0.3,5.9-0.5,6.5c-0.2,0.5-0.6,0.9-1.2,1.2
				c-0.5,0.2-1.8,0.4-3.8,0.4c-0.4,0-0.9,0-1.4,0l1.7,5.5c3.4,0,5.9-0.3,7.4-0.9c1.5-0.7,2.5-1.6,3.1-2.8c0.6-1.2,0.9-4.6,1.2-10.3
				c0.2-5.7,0.1-11.7-0.2-18.2l-11.5,0.4c0.1-2.4,0.1-4.7-0.1-6.8l11.9-0.4l-0.2-5.8l-7.2,0.3c-0.7-2.4-2-5.1-3.8-8.2l-6.6,2
				c1.5,2.5,2.5,4.5,3.1,6.3l-9,0.3l0.2,5.7l5-0.1c0.3,10.6,0,18.1-1,22.7c-0.9,4.6-2.8,8.4-5.4,11.5l5.2,4.2
				C430.9,229.5,433.6,220.7,433.6,208.9"/>
		</defs>
		<clipPath id="SVGID_86_">
			<use xlink:href="#SVGID_85_"  style="overflow:visible;"/>
		</clipPath>
		<g class="st31">
			<defs>
				<rect id="SVGID_87_" x="-26.6" y="-26.8" width="548.9" height="357.9"/>
			</defs>
			<clipPath id="SVGID_88_">
				<use xlink:href="#SVGID_87_"  style="overflow:visible;"/>
			</clipPath>
		</g>
	</g>
	<g>
		<defs>
			<path id="SVGID_89_" d="M362.5,227c9.6,3.1,17.3,6.6,23.3,10.6l1.5-8.7c-6.9-4.2-14.7-7.7-23.5-10.4L362.5,227z"/>
		</defs>
		<clipPath id="SVGID_90_">
			<use xlink:href="#SVGID_89_"  style="overflow:visible;"/>
		</clipPath>
		<g class="st32">
			<defs>
				<rect id="SVGID_91_" x="-26.6" y="-26.8" width="548.9" height="357.9"/>
			</defs>
			<clipPath id="SVGID_92_">
				<use xlink:href="#SVGID_91_"  style="overflow:visible;"/>
			</clipPath>
		</g>
	</g>
	<g>
		<defs>
			<polygon id="SVGID_93_" points="361.3,243 355.8,217.5 381.8,212 382.8,211.8 381.2,204 354.1,209.7 352.7,202.7 344.1,204.5 
				345.7,211.5 318.4,217.4 320.1,225.2 347.3,219.3 352.7,244.8 			"/>
		</defs>
		<clipPath id="SVGID_94_">
			<use xlink:href="#SVGID_93_"  style="overflow:visible;"/>
		</clipPath>
		<g class="st33">
			<defs>
				<rect id="SVGID_95_" x="-26.6" y="-26.8" width="548.9" height="357.9"/>
			</defs>
			<clipPath id="SVGID_96_">
				<use xlink:href="#SVGID_95_"  style="overflow:visible;"/>
			</clipPath>
		</g>
	</g>
	<g>
		<defs>
			<path id="SVGID_97_" d="M415,196.8l4.2-4.1c-2.8-3.6-6.1-6.7-9.8-9.1l-3.7,4.5C409.1,190.4,412.1,193.3,415,196.8"/>
		</defs>
		<clipPath id="SVGID_98_">
			<use xlink:href="#SVGID_97_"  style="overflow:visible;"/>
		</clipPath>
		<g class="st34">
			<defs>
				<rect id="SVGID_99_" x="-26.6" y="-26.8" width="548.9" height="357.9"/>
			</defs>
			<clipPath id="SVGID_100_">
				<use xlink:href="#SVGID_99_"  style="overflow:visible;"/>
			</clipPath>
		</g>
	</g>
	<g>
		<defs>
			<path id="SVGID_101_" d="M303.1,214.2l2.8-6.9l-37.2-14.9l-2.8,6.8l26.9,10.8c-2.2,0.3-4.5,0.5-6.8,0.5c-1.2,0-2.5,0-3.7-0.1
				l-2.4,6l-21.5-8.7l-2.8,7.3l21.5,8.6l-2.3,5.5c-0.3,0.7-0.7,1.2-1,1.3c-0.1,0-0.1,0-0.2,0c-0.6,0-2.1-0.5-4.4-1.4
				c-1.7-0.7-3.3-1.5-5-2.3l-1.4,8.6c1,0.5,2.4,1.1,4.1,1.8c2.8,1.1,4.7,1.7,5.7,1.8c0.1,0,0.1,0,0.2,0c1,0,2.1-0.5,3.1-1.5
				c1.2-1.1,2.2-2.9,3.2-5.4l2.6-6.5l20.1,8l2.9-7.2l-20.1-8.1l0.4-0.9C290.6,217.2,296.7,216.1,303.1,214.2"/>
		</defs>
		<clipPath id="SVGID_102_">
			<use xlink:href="#SVGID_101_"  style="overflow:visible;"/>
		</clipPath>
		<g class="st35">
			<defs>
				<rect id="SVGID_103_" x="-26.6" y="-26.8" width="548.9" height="357.9"/>
			</defs>
			<clipPath id="SVGID_104_">
				<use xlink:href="#SVGID_103_"  style="overflow:visible;"/>
			</clipPath>
		</g>
	</g>
	<g>
		<defs>
			<path id="SVGID_105_" d="M269.4,186.8l30.5,11.4l6.5-17.5l-30.5-11.4L269.4,186.8z M300,185l-2.1,5.7l-22-8.2l2.1-5.8L300,185z"
				/>
		</defs>
		<clipPath id="SVGID_106_">
			<use xlink:href="#SVGID_105_"  style="overflow:visible;"/>
		</clipPath>
		<g class="st36">
			<defs>
				<rect id="SVGID_107_" x="-26.6" y="-26.8" width="548.9" height="357.9"/>
			</defs>
			<clipPath id="SVGID_108_">
				<use xlink:href="#SVGID_107_"  style="overflow:visible;"/>
			</clipPath>
		</g>
	</g>
	<g>
		<defs>
			<path id="SVGID_109_" d="M333.4,202.1l5.3-0.4c0.4-3.9,0.4-7.9,0.2-11.7l-5.2,0.1c0.1,1.2,0.1,2.3,0,3.1
				c-1.7-0.1-3.7-0.4-5.9-0.9c5.5-2.8,11.6-7.6,18.2-14.4l-5.3-3.7c-1.4,1.7-3.1,3.4-5,5.2c-1.7-0.3-3.4-0.5-4.7-0.8
				c4.4-3.2,7.9-6.7,10.9-10.4l-5.6-3c-4,5.3-8.2,9.4-12.4,12.4l-0.5,5.1c4.3,0.7,6.7,1.1,7.3,1.3c-3.6,3-7.3,5.5-11.1,7.4l-0.4,5
				c3.9,0.8,8.7,1.5,14.4,2C333.6,200.1,333.5,201.3,333.4,202.1"/>
		</defs>
		<clipPath id="SVGID_110_">
			<use xlink:href="#SVGID_109_"  style="overflow:visible;"/>
		</clipPath>
		<g class="st37">
			<defs>
				<rect id="SVGID_111_" x="-26.6" y="-26.8" width="548.9" height="357.9"/>
			</defs>
			<clipPath id="SVGID_112_">
				<use xlink:href="#SVGID_111_"  style="overflow:visible;"/>
			</clipPath>
		</g>
	</g>
	<g>
		<defs>
			<path id="SVGID_113_" d="M305.4,170.6c-0.3-1.5-1.4-24-2.1-25.9l-6.7-1.1c0.6,1.5-6.3,20.2-6,21.2l-22.3-9.4l-1.6,3.8l51.7,22.3
				l1.6-3.8L305.4,170.6z"/>
		</defs>
		<clipPath id="SVGID_114_">
			<use xlink:href="#SVGID_113_"  style="overflow:visible;"/>
		</clipPath>
		<g class="st38">
			<defs>
				<rect id="SVGID_115_" x="-26.6" y="-26.8" width="548.9" height="357.9"/>
			</defs>
			<clipPath id="SVGID_116_">
				<use xlink:href="#SVGID_115_"  style="overflow:visible;"/>
			</clipPath>
		</g>
	</g>
	<g>
		<defs>
			<rect id="SVGID_117_" x="352.7" y="188.9" width="6.5" height="5.8"/>
		</defs>
		<clipPath id="SVGID_118_">
			<use xlink:href="#SVGID_117_"  style="overflow:visible;"/>
		</clipPath>
	</g>
	<g>
		<defs>
			<path id="SVGID_119_" d="M352.7,194.7h6.5v-5.8h-6.5V194.7z M352.7,184.3h6.5v-5.4h-6.5V184.3z M365,199.7h-17.9v-25.8h4.5
				c0.9-1.2,1.7-3.1,2.5-5.3l6.3,1.2c-0.7,1.6-1.5,3-2.2,4.2h6.8V199.7z"/>
		</defs>
		<clipPath id="SVGID_120_">
			<use xlink:href="#SVGID_119_"  style="overflow:visible;"/>
		</clipPath>
		<g class="st39">
			<defs>
				<rect id="SVGID_121_" x="-26.6" y="-26.8" width="548.9" height="357.9"/>
			</defs>
			<clipPath id="SVGID_122_">
				<use xlink:href="#SVGID_121_"  style="overflow:visible;"/>
			</clipPath>
		</g>
	</g>
	<g>
		<defs>
			<rect id="SVGID_123_" x="352.7" y="178.9" width="6.5" height="5.4"/>
		</defs>
		<clipPath id="SVGID_124_">
			<use xlink:href="#SVGID_123_"  style="overflow:visible;"/>
		</clipPath>
	</g>
	<g>
		<defs>
			<path id="SVGID_125_" d="M134.9,47.8l-4.3-10c-0.1-0.2-0.1-0.4-0.2-0.5c-0.4-1.5,0.4-2.4,2.4-2.9c1.9-0.4,3.1,0.1,3.4,1.6
				c0.1,0.2,0.1,0.4,0.1,0.5l0.8,10.8L134.9,47.8z"/>
		</defs>
		<use xlink:href="#SVGID_125_"  style="overflow:visible;fill-rule:evenodd;clip-rule:evenodd;fill:#221815;"/>
		<clipPath id="SVGID_126_">
			<use xlink:href="#SVGID_125_"  style="overflow:visible;"/>
		</clipPath>
		<g class="st40">
			<defs>
				<rect id="SVGID_127_" x="-27.5" y="-28.8" width="548" height="357.2"/>
			</defs>
			<clipPath id="SVGID_128_">
				<use xlink:href="#SVGID_127_"  style="overflow:visible;"/>
			</clipPath>
		</g>
	</g>
	<g>
		<defs>
			<path id="SVGID_129_" d="M138.1,49.3c1.9,0.5,2.5,1.8,2,3.6c-0.6,1.8-1.8,2.5-3.6,1.9c-1.8-0.6-2.5-1.8-1.9-3.6
				C135,49.4,136.3,48.7,138.1,49.3"/>
		</defs>
		<use xlink:href="#SVGID_129_"  style="overflow:visible;fill-rule:evenodd;clip-rule:evenodd;fill:#221815;"/>
		<clipPath id="SVGID_130_">
			<use xlink:href="#SVGID_129_"  style="overflow:visible;"/>
		</clipPath>
		<g class="st41">
			<defs>
				<rect id="SVGID_131_" x="-27.7" y="-29" width="548.9" height="357.9"/>
			</defs>
			<clipPath id="SVGID_132_">
				<use xlink:href="#SVGID_131_"  style="overflow:visible;"/>
			</clipPath>
		</g>
	</g>
	<g>
		<path class="st42" d="M84.3,56.5c-0.2-0.2-0.5-0.4-0.7-0.8c-0.3-0.3-0.5-0.7-0.6-1.1c-0.3-0.8-0.3-1.4-0.1-1.9
			c0.2-0.5,0.6-0.8,1.2-1l13.2-4.8c0.2,0.2,0.5,0.4,0.7,0.8c0.3,0.3,0.5,0.7,0.6,1.1c0.3,0.8,0.3,1.4,0.1,1.9
			c-0.2,0.5-0.6,0.8-1.2,1l-3.4,1.2l5.1,14c-0.2,0.1-0.5,0.3-1,0.6c-0.5,0.2-0.9,0.4-1.4,0.6c-0.5,0.2-0.9,0.3-1.3,0.3
			c-0.4,0.1-0.7,0-1-0.1c-0.3-0.1-0.6-0.3-0.8-0.6c-0.2-0.3-0.5-0.7-0.6-1.2l-4.3-11.8L84.3,56.5z"/>
		<path class="st42" d="M111,47.1c0.2-0.2,0.5-0.4,0.9-0.7c0.4-0.3,0.9-0.5,1.4-0.7c0.8-0.3,1.6-0.4,2.3-0.4c0.7,0,1.1,0.3,1.4,0.7
			c0.5,0.7,1,1.4,1.5,2.1s0.9,1.3,1.3,1.9c0.4,0.6,0.8,1.2,1.2,1.8c0.4,0.6,0.8,1.2,1.2,1.8l0.2-0.1c-0.3-1.3-0.5-2.5-0.8-3.7
			c-0.3-1.2-0.5-2.3-0.8-3.4c-0.3-1.1-0.5-2.2-0.8-3.3c-0.3-1.1-0.5-2.2-0.8-3.4c0.6-0.7,1.3-1.2,2.2-1.5c0.7-0.3,1.5-0.3,2.1-0.2
			c0.7,0.1,1.1,0.6,1.4,1.3c0.2,0.4,0.3,1.1,0.6,1.9c0.2,0.9,0.4,1.8,0.6,2.9c0.2,1.1,0.4,2.2,0.6,3.4c0.2,1.2,0.4,2.3,0.5,3.4
			c0.1,1.1,0.3,2.1,0.3,3c0.1,0.9,0.1,1.6,0,2.1c-0.2,0.4-0.6,0.8-1.2,1.2c-0.6,0.4-1.3,0.8-2,1c-0.9,0.3-1.8,0.5-2.5,0.5
			c-0.7,0-1.3-0.2-1.6-0.6c-0.6-0.7-1.2-1.6-1.9-2.6c-0.7-1-1.5-2.1-2.3-3.3c0.2,1.4,0.4,2.8,0.5,4.2c0.2,1.4,0.3,2.5,0.3,3.5
			c-0.2,0.4-0.6,0.8-1.1,1.2c-0.5,0.4-1.2,0.7-1.9,1c-0.9,0.3-1.8,0.5-2.6,0.5c-0.8,0-1.4-0.2-1.8-0.6c-0.3-0.3-0.7-0.8-1.2-1.4
			c-0.5-0.6-1-1.4-1.5-2.2c-0.6-0.8-1.1-1.7-1.8-2.7c-0.6-1-1.2-2-1.8-3c-0.6-1-1.1-2-1.7-2.9c-0.5-1-1-1.9-1.4-2.7
			c0.2-0.4,0.5-0.8,0.9-1.2c0.4-0.4,0.9-0.7,1.5-0.9c0.8-0.3,1.5-0.3,2.1-0.2c0.6,0.2,1.1,0.6,1.5,1.3c1.1,1.9,2,3.6,2.7,4.9
			c0.7,1.3,1.3,2.4,1.7,3.2c0.5,0.8,0.8,1.5,1,1.9c0.2,0.5,0.4,0.8,0.6,1.1l0.2-0.1c-0.1-0.9-0.2-1.7-0.3-2.4
			c-0.1-0.7-0.2-1.5-0.3-2.3c-0.1-0.8-0.2-1.6-0.3-2.4C111.3,49.2,111.2,48.2,111,47.1z"/>
	</g>
	<path class="st43" d="M377.5,147.1c4.5,6.3,9.2,10.7,14.1,13.4l-0.4,6.6l-9.6,4.1c4.4,3.6,9,6.2,13.5,7.6l-0.1,6.6
		c-6.3,3.1-12.6,5.7-18.7,8c-0.1,0.4-0.1,1.9-0.2,4.4l-6.8,0.7c0.1-5.3,0.9-10.9,2.3-16.8l6.6-0.6c-0.4,1.7-0.7,3.3-0.8,4.5
		c2.2-0.6,4.5-1.5,6.9-2.8c-7.5-3.6-14.3-8.7-20.3-15.3l6.8-6.3c1.2,1.4,2.9,3.1,5.1,5.1c2.7-0.9,4.8-1.8,6.3-2.5
		c-4.7-3.1-8.5-6.7-11.5-10.9L377.5,147.1z"/>
	<path class="st44" d="M156.3,86.4l-3.7-21.3c1.5-4.5,2.3-9.1,2.3-13.8c0-23.8-19.2-43.1-42.9-43.1c0,0-0.1,0-0.1,0
		c-11.3,0-22,4.4-30.1,12.5C73.7,28.7,69.2,39.5,69.2,51l0,0.9l0,0c0.4,23.4,19.5,42.3,42.9,42.3c9.2,0,18.2-3,25.6-8.6l12.6,5.5
		c1.1,0.5,2.3,0.5,3.4,0c1.1-0.4,1.9-1.3,2.4-2.3C156.3,88.1,156.4,87.3,156.3,86.4z M152.1,87.1L152.1,87.1L152.1,87.1l-15-6.4
		l-1,0.8c-6.8,5.4-15.3,8.4-23.9,8.4c-21.3,0-38.6-17.4-38.6-38.8c0-0.1,0-0.2,0-0.3c0.1-10.3,4.1-19.9,11.4-27.1
		c7.2-7.2,16.8-11.2,27-11.2c0,0,0.1,0,0.1,0c21.3,0,38.6,17.4,38.6,38.8c0,4.4-0.7,8.7-2.2,12.9l-0.2,0.5L152.1,87.1
		C152.1,87.1,152.1,87.1,152.1,87.1z"/>
	<path class="st0" d="M126.7,132.1l-7.6,10.5c-3.4-3.1-7-6.1-10.9-8.9c-31.2,12.8-60.5,23.3-87.9,31.7l-5.5-9.8
		c10.9-7.2,20.3-24.1,28.2-50.5l13.4-1c-4.7,15.8-11.2,30.6-19.8,44.3c16.2-5.2,36.5-12.5,60.7-22c-6.8-4.3-14.6-8.5-23.8-12.5
		l7.7-10.1C99.8,112.7,115,122.1,126.7,132.1"/>
	<path class="st43" d="M143.8,128.6l10.5-8.4c-4.9-5.8-11.4-11.5-19.4-16.9l-10.5,8.5C131.6,116.9,138.1,122.5,143.8,128.6"/>
	<path class="st3" d="M153.1,184.6c-5.9,30.3-12.2,56.5-18.9,78.6l-12.5-13.9c7.1-22.8,13.1-48.2,18-76.2L153.1,184.6z"/>
	<path class="st3" d="M221.8,114.2l8.6,3.4l1-4.4c8.7,1.5,17.2,2.7,25.4,3.6l2.2-9.7c-5.5-4.2-10.6-9.6-15.6-16.3l12.5,0.9l2.8-9.6
		c-6.4-5.7-12.7-14.6-18.6-26.9l-9.3,4.9c5.2,8.5,10.2,15.4,14.9,20.8c-3.9,0-7-0.3-9.3-0.9c-1.5-1.8-3.4-5-5.5-9.5l-8.7,4.7
		c6.4,11.6,14,21.6,22.8,30.1c-2.2-0.1-5.6-0.7-10.3-1.6c0.1-0.7,0.7-2.3,1.8-4.7l-8.2-3.7C225,103,222.8,109.3,221.8,114.2"/>
	<path class="st1" d="M239.3,122.7c-1.2,8.5-3,15.5-5.2,20.8l-13.3-3.1c2.8-5.5,4.8-12.1,6-19.6L239.3,122.7z"/>
	<path class="st0" d="M259.5,141.3c-0.6-8-1.9-14.7-3.8-19.8l-12.7,1.2c2.4,10,3.3,16.9,2.7,20.8L259.5,141.3z"/>
	<path class="st45" d="M282.1,139.5l-13.7,2.9c-2.5-8.9-4.7-15.6-6.7-20l13.5-2.5C278.6,127.1,280.9,133.6,282.1,139.5"/>
	<path class="st43" d="M296.8,143.7l6.6,1.2c0.7,2,1.2,24.4,1.5,25.9l15.2,6.8l-1.7,3.8l-51.6-22.3l1.7-3.9l22.1,9.6
		C290.2,163.9,297.3,145.2,296.8,143.7z"/>
	<path class="st1" d="M303.1,214.2l2.8-6.9l-37.2-14.9l-2.8,6.8l26.9,10.8c-2.2,0.3-4.5,0.5-6.8,0.5c-1.2,0-2.5,0-3.7-0.1l-2.4,6
		l-21.5-8.7l-2.8,7.3l21.5,8.6l-2.3,5.5c-0.3,0.7-0.7,1.2-1,1.3c-0.1,0-0.1,0-0.2,0c-0.6,0-2.1-0.5-4.4-1.4c-1.7-0.7-3.3-1.5-5-2.3
		l-1.4,8.6c1,0.5,2.4,1.1,4.1,1.8c2.8,1.1,4.7,1.7,5.7,1.8c0.1,0,0.1,0,0.2,0c1,0,2.1-0.5,3.1-1.5c1.2-1.1,2.2-2.9,3.2-5.4l2.6-6.5
		l20.1,8l2.9-7.2l-20.1-8.1l0.4-0.9C290.6,217.2,296.7,216.1,303.1,214.2"/>
	<path class="st45" d="M333.4,202.1l5.3-0.4c0.4-3.9,0.4-7.9,0.2-11.7l-5.2,0.1c0.1,1.2,0.1,2.3,0,3.1c-1.7-0.1-3.7-0.4-5.9-0.9
		c5.5-2.8,11.6-7.6,18.2-14.4l-5.3-3.7c-1.4,1.7-3.1,3.4-5,5.2c-1.7-0.3-3.4-0.5-4.7-0.8c4.4-3.2,7.9-6.7,10.9-10.4l-5.6-3
		c-4,5.3-8.2,9.4-12.4,12.4l-0.5,5.1c4.3,0.7,6.7,1.1,7.3,1.3c-3.6,3-7.3,5.5-11.1,7.4l-0.4,5c3.9,0.8,8.7,1.5,14.4,2
		C333.6,200.1,333.5,201.3,333.4,202.1"/>
	<polygon class="st1" points="361.3,243 355.8,217.5 381.8,212 382.8,211.8 381.2,204 354.1,209.7 352.7,202.7 344.1,204.5 
		345.7,211.5 318.4,217.4 320.1,225.2 347.3,219.3 352.7,244.8 	"/>
	<path class="st3" d="M345.7,236.7c-5.8,5.2-13.1,8-22.1,7.9l-3.9-14.5c8.4,0.2,15.2-1.9,20.6-6.3L345.7,236.7z"/>
	<path class="st0" d="M362.5,227c9.6,3.1,17.3,6.6,23.3,10.6l1.5-8.7c-6.9-4.2-14.7-7.7-23.5-10.4L362.5,227z"/>
	<path class="st43" d="M415,196.8l4.2-4.1c-2.8-3.6-6.1-6.7-9.8-9.1l-3.7,4.5C409.1,190.4,412.1,193.3,415,196.8"/>
	<path class="st3" d="M434,240.6c-8.5-0.1-14.2-2.2-17.8-7.3c1.2-3.1,1.9-6.5,2.7-10.2V217l-8.1,0.5c2.5-4.3,4.9-8.6,7-13.2
		l-0.5-6.2l-15.4,0.5l0.3,6.2l8.6-0.3c-2.3,5-4.6,9.1-7.3,12.9l0.2,6.3l9.1-0.2c-1.3,7.8-4.8,15.1-10.2,21.9l5.1,3.6
		c2.5-3.1,4.3-5.9,5.9-9.4c4.3,5.4,11.1,7.8,20.8,7.9c0.5,0,1,0,1.5,0c14.9-0.4,41.1-1.9,43.6-2l1.9-6.5
		C477.4,239.3,461.6,239.8,434,240.6z"/>
	<path class="st0" d="M433.6,208.9l5.3-0.2c0.1,4.8,0,9.1-0.1,13c-0.1,3.8-0.3,5.9-0.5,6.5c-0.2,0.5-0.6,0.9-1.2,1.2
		c-0.5,0.2-1.8,0.4-3.8,0.4c-0.4,0-0.9,0-1.4,0l1.7,5.5c3.4,0,5.9-0.3,7.4-0.9c1.5-0.7,2.5-1.6,3.1-2.8c0.6-1.2,0.9-4.6,1.2-10.3
		c0.2-5.7,0.1-11.7-0.2-18.2l-11.5,0.4c0.1-2.4,0.1-4.7-0.1-6.8l11.9-0.4l-0.2-5.8l-7.2,0.3c-0.7-2.4-2-5.1-3.8-8.2l-6.6,2
		c1.5,2.5,2.5,4.5,3.1,6.3l-9,0.3l0.2,5.7l5-0.1c0.3,10.6,0,18.1-1,22.7c-0.9,4.6-2.8,8.4-5.4,11.5l5.2,4.2
		C430.9,229.5,433.6,220.7,433.6,208.9"/>
	<path class="st1" d="M450.9,208.5l0.1,3.6l10.9-0.4c-1.2,1.4-2.8,3-4.8,4.7l0.1,2.3L449,219l0.1,4.5l8.2-0.2l0.1,5.6
		c0.1,0.7-0.5,1.2-1.6,1.2c-1.1,0.1-2.9,0.1-5.5,0.1l1.8,4.4c4.3,0,7.3-0.4,9-0.9c1.7-0.7,2.5-2.2,2.4-4.6l-0.2-6.1l7.9-0.2
		l-0.1-4.5l-7.9,0.2v-1.2c1.9-1.8,3.8-3.7,5.6-5.8l-0.1-4.6l-16.8,0.6c1.4-1.5,2.5-2.9,3.4-4.1l15.2-0.5l-0.1-4.5l-12.2,0.4
		c1-1.5,1.8-3.1,2.6-5l-5.2-1.2c-2.9,6-6.3,10.5-9.9,13.4l3.3,4C449.6,209.7,450.3,209.1,450.9,208.5"/>
</g>
</svg>
