<?xml version="1.0" encoding="utf-8"?>
<!-- Generator: Adobe Illustrator 24.1.0, SVG Export Plug-In . SVG Version: 6.00 Build 0)  -->
<svg version="1.1" id="圖層_1" xmlns="http://www.w3.org/2000/svg" xmlns:xlink="http://www.w3.org/1999/xlink" x="0px" y="0px"
	 viewBox="0 0 97.8 98.62" style="enable-background:new 0 0 97.8 98.62;" xml:space="preserve">
<style type="text/css">
	.st0{fill:#DEEAEA;}
	.st1{fill:#ECE8C6;}
	.st2{fill:#3B1A16;}
	.st3{fill:#FFFFFF;}
	.st4{fill:#A48E89;}
	.st5{fill:#CF493F;}
	.st6{fill:#F6C12A;}
	.st7{fill:#ED6D1C;}
</style>
<g id="组_1721" transform="translate(-12.587 -14.377)">
	<g id="组_1719" transform="translate(12.587 14.377)">
		<circle id="椭圆_1" class="st0" cx="39.61" cy="50.65" r="35.97"/>
		<g id="组_1714" transform="translate(8.366)">
			<path id="路径_2117" class="st1" d="M39.61,19.7H5.31v-5.48c0-4.36,3.54-7.9,7.9-7.9l0,0h26.4L39.61,19.7z"/>
			<path id="路径_2118" class="st2" d="M39.61,21.38H5.31c-0.92,0-1.67-0.75-1.67-1.67c0,0,0,0,0,0v-5.48
				c0.01-5.29,4.29-9.57,9.58-9.58h26.4c0.92,0,1.67,0.75,1.67,1.67V19.7C41.29,20.63,40.54,21.38,39.61,21.38L39.61,21.38z
				 M6.99,18.03h30.95V7.99H13.22c-3.44,0-6.23,2.79-6.23,6.23V18.03z"/>
		</g>
		<g id="组_1715" transform="translate(16.268)">
			<path id="路径_2119" class="st3" d="M5.32,6.33c4.46,0.19,7.15,3.77,7.15,8.36v65.76c0,6.19,3.85,11.2,10.04,11.2h40.16l6.69-5
				V15.79c0-5.23-4.24-9.47-9.47-9.47H5.78L5.32,6.33z"/>
			<path id="路径_2120" class="st2" d="M62.66,93.32H22.51c-6.78,0-11.71-5.42-11.71-12.88V14.68c0-3.92-2.18-6.54-5.55-6.68
				C4.32,7.97,3.6,7.19,3.63,6.27c0.03-0.9,0.76-1.61,1.66-1.62l0.46-0.01h54.14c6.15,0.01,11.14,4.99,11.14,11.15v70.86
				c0,0.53-0.25,1.02-0.67,1.34l-6.69,5C63.38,93.2,63.03,93.32,62.66,93.32L62.66,93.32z M12.01,7.99
				c1.44,1.93,2.19,4.28,2.14,6.69v65.76c0,5.61,3.44,9.53,8.36,9.53h39.6l5.57-4.16V15.79c0-4.31-3.49-7.8-7.8-7.8L12.01,7.99z"/>
		</g>
		<g id="组_1716" transform="translate(33.236 73.616)">
			<path id="路径_2121" class="st1" d="M5.54,18.03h45.55c4.41,0,7.99-3.58,7.99-7.99v0V6.32H13.91v2.51
				c0,4.85-3.76,8.86-8.59,9.18L5.54,18.03z"/>
			<path id="路径_2122" class="st2" d="M51.09,19.7H5.54c-0.05,0-0.1,0-0.15-0.01l-0.22-0.02c-0.92-0.08-1.6-0.89-1.53-1.81
				c0.07-0.83,0.73-1.48,1.56-1.53c3.95-0.27,7.02-3.55,7.03-7.51V6.32c0-0.92,0.75-1.67,1.67-1.67c0,0,0,0,0,0h45.17
				c0.92,0,1.67,0.75,1.67,1.67v3.72C60.75,15.37,56.42,19.7,51.09,19.7z M12.54,16.36h38.54c3.49,0,6.32-2.83,6.32-6.32V7.99H15.58
				v0.84C15.58,11.63,14.49,14.33,12.54,16.36z"/>
		</g>
		<g id="组_1717" transform="translate(0.98 36.808)">
			<path id="路径_2123" class="st2" d="M10.05,33.78c-0.44,0-0.87-0.17-1.18-0.49l-4.73-4.73c-0.65-0.65-0.65-1.71,0-2.37
				c0.65-0.65,1.71-0.65,2.37,0l0,0l4.73,4.73c0.65,0.65,0.65,1.71,0,2.37C10.92,33.61,10.49,33.78,10.05,33.78L10.05,33.78z"/>
			<path id="路径_2124" class="st2" d="M5.31,33.78c-0.92,0-1.67-0.75-1.67-1.67c0-0.44,0.18-0.87,0.49-1.18l4.73-4.73
				c0.67-0.64,1.73-0.62,2.37,0.05c0.62,0.65,0.62,1.67,0,2.32L6.5,33.29C6.18,33.61,5.76,33.78,5.31,33.78z"/>
			<circle id="椭圆_2" class="st2" cx="19.39" cy="24.72" r="1.67"/>
			<circle id="椭圆_3" class="st2" cx="14.37" cy="6.32" r="1.67"/>
		</g>
		<path id="路径_2125" class="st4" d="M68.89,64.88H48.82c-0.92,0-1.67-0.75-1.67-1.67c0-0.92,0.75-1.67,1.67-1.67h20.07
			c0.92,0,1.67,0.75,1.67,1.67C70.56,64.13,69.81,64.88,68.89,64.88z"/>
		<path id="路径_2126" class="st4" d="M73.91,69.89H43.8c-0.92,0-1.67-0.75-1.67-1.67c0-0.92,0.75-1.67,1.67-1.67h30.12
			c0.92,0,1.67,0.75,1.67,1.67C75.59,69.15,74.84,69.89,73.91,69.89z"/>
		<g id="组_1718" transform="translate(55.212 8.22)">
			<path id="路径_2127" class="st5" d="M18.03,5.76c-1.89-0.23-3.72,0.72-4.63,2.39c-0.81-1.51-2.4-2.44-4.11-2.42
				c-2.44-0.08-4.48,1.83-4.57,4.27c0,2.36,4.11,7.69,8.68,9.83c5.03-2.56,8.37-7,8.65-9.35c0.22-2.39-1.55-4.51-3.94-4.72
				C18.09,5.77,18.06,5.76,18.03,5.76z"/>
			<path id="路径_2128" class="st2" d="M13.41,20.92c-0.16,0-0.32-0.03-0.46-0.1c-4.92-2.3-9.31-7.97-9.31-10.81
				C3.73,6.97,6.26,4.57,9.3,4.65c1.54-0.01,3.02,0.59,4.11,1.68c1.25-1.24,2.99-1.84,4.74-1.65l0,0c1.52,0.16,2.92,0.91,3.88,2.1
				c0.87,1.08,1.27,2.46,1.1,3.84c-0.34,2.8-3.97,7.5-9.23,10.18C13.75,20.88,13.58,20.92,13.41,20.92L13.41,20.92z M9.3,6.81
				C7.45,6.74,5.9,8.16,5.81,10c0,1.65,3.39,6.42,7.58,8.61c4.55-2.49,7.36-6.41,7.59-8.26c0.09-0.8-0.14-1.6-0.64-2.23
				c-1.29-1.55-3.59-1.76-5.13-0.47c-0.33,0.28-0.61,0.61-0.83,0.99c-0.33,0.53-1.02,0.7-1.55,0.37c-0.15-0.09-0.28-0.22-0.37-0.37
				C11.81,7.5,10.6,6.8,9.3,6.81z"/>
		</g>
	</g>
	<g id="组_1720" transform="translate(42.475 42.328)">
		<path id="路径_2129" class="st6" d="M27.73,5.54c-0.22-0.49-0.71-0.81-1.25-0.81h-0.01c-0.54,0-1.03,0.33-1.25,0.83l-3.26,7.58
			c-0.3,0.7,0.02,1.5,0.72,1.8s1.5-0.02,1.8-0.72l0,0l0.18-0.41h3.78l0.19,0.42c0.32,0.69,1.13,0.99,1.82,0.67
			c0.67-0.31,0.98-1.1,0.68-1.79L27.73,5.54z M25.83,11.08l0.68-1.57l0.7,1.57H25.83z"/>
		<path id="路径_2130" class="st7" d="M31.12,13.13l-3.39-7.58c-0.22-0.49-0.71-0.81-1.25-0.81h-0.01c0.01,0,0.03,4.78,0.03,4.78
			l0.7,1.57h-0.66v2.74h1.89l0.19,0.42c0.31,0.69,1.12,1,1.81,0.69C31.12,14.62,31.43,13.81,31.12,13.13L31.12,13.13z"/>
		<path id="路径_2131" class="st6" d="M19.71,4.7c-0.76,0-1.37,0.61-1.37,1.37c0,0,0,0,0,0v3.34h-2.86V6.07
			c0-0.76-0.61-1.37-1.37-1.37c-0.76,0-1.37,0.61-1.37,1.37v7.61c0,0.76,0.61,1.37,1.37,1.37c0.76,0,1.37-0.61,1.37-1.37v-1.53h2.86
			v1.53c0,0.76,0.61,1.37,1.37,1.37c0.76,0,1.37-0.61,1.37-1.37V6.07C21.08,5.31,20.47,4.7,19.71,4.7z"/>
		<path id="路径_2132" class="st7" d="M39.15,4.64c-0.76,0-1.37,0.61-1.37,1.37v3.71L34.2,5.17c-0.47-0.59-1.33-0.7-1.92-0.23
			c-0.33,0.26-0.52,0.66-0.52,1.08v7.67c0,0.76,0.61,1.37,1.37,1.37c0.76,0,1.37-0.61,1.37-1.37V9.97l3.58,4.56
			c0.47,0.59,1.33,0.7,1.92,0.23c0.33-0.26,0.52-0.66,0.52-1.08V6.01C40.52,5.26,39.91,4.64,39.15,4.64
			C39.15,4.64,39.15,4.64,39.15,4.64z"/>
		<path id="路径_2133" class="st7" d="M50.1,13.06l-2.12-4.84l1.49-1.03c0.62-0.44,0.76-1.29,0.33-1.91
			c-0.43-0.61-1.27-0.76-1.89-0.34L45.5,6.6c-0.04,0.03-0.08,0.06-0.12,0.09l-0.93,0.65V6.03c0-0.76-0.61-1.37-1.37-1.37
			c-0.76,0-1.37,0.61-1.37,1.37v7.61c0,0.76,0.61,1.37,1.37,1.37l0,0c0.75,0,1.37-0.61,1.37-1.37l0.01-2.98l1.23-0.86l1.9,4.35
			c0.3,0.69,1.11,1.01,1.8,0.7S50.4,13.75,50.1,13.06L50.1,13.06z"/>
		<path id="路径_2134" class="st6" d="M21.35,18.84c-0.6-0.45-1.46-0.33-1.92,0.27c0,0,0,0,0,0l-1.85,2.47l-1.85-2.47
			c-0.45-0.61-1.31-0.73-1.92-0.27c-0.61,0.45-0.73,1.31-0.27,1.92l2.68,3.57v3.27c0,0.76,0.61,1.37,1.37,1.37
			c0.76,0,1.37-0.61,1.37-1.37v-3.27l2.67-3.57C22.08,20.15,21.95,19.29,21.35,18.84z"/>
		<path id="路径_2135" class="st6" d="M26.67,18.51c-1.15-0.01-2.27,0.43-3.09,1.24c-0.75,0.74-1.18,1.75-1.18,2.8v2.39
			c0.06,2.3,1.96,4.12,4.26,4.1h0.04c1.14,0,2.24-0.44,3.06-1.24c0.75-0.74,1.18-1.75,1.18-2.8V22.6
			C30.87,20.3,28.97,18.48,26.67,18.51z M28.19,24.99c0,0.32-0.14,0.63-0.37,0.86c-0.3,0.29-0.71,0.45-1.13,0.44h-0.02
			c-0.8,0.04-1.48-0.56-1.54-1.36v-2.39c0-0.32,0.14-0.63,0.37-0.86c0.3-0.29,0.71-0.45,1.13-0.44h0.02
			c0.8-0.04,1.48,0.56,1.54,1.36L28.19,24.99z"/>
		<path id="路径_2136" class="st7" d="M26.67,18.51l-0.04,2.74h0.02c0.79-0.04,1.48,0.56,1.54,1.36v2.39
			c0,0.32-0.14,0.63-0.37,0.86c-0.3,0.29-0.71,0.45-1.13,0.44h-0.01l-0.03,2.74h0.04c1.14,0,2.24-0.44,3.06-1.24
			c0.75-0.74,1.18-1.75,1.18-2.8V22.6C30.86,20.31,28.97,18.48,26.67,18.51z"/>
		<path id="路径_2137" class="st7" d="M39.36,18.53c-0.76,0-1.37,0.61-1.37,1.37v5.1c0,0.32-0.14,0.63-0.37,0.86
			c-0.31,0.29-0.72,0.45-1.14,0.44c-0.8,0.04-1.48-0.56-1.54-1.36v-5.1c0-0.76-0.61-1.37-1.37-1.37c-0.76,0-1.37,0.61-1.37,1.37
			c0,0,0,0,0,0v5.09c0.06,2.3,1.95,4.12,4.25,4.09h0.04c1.14,0,2.24-0.44,3.05-1.24c0.75-0.74,1.18-1.75,1.18-2.8v-5.1
			C40.73,19.14,40.12,18.53,39.36,18.53z"/>
		<path id="路径_2138" class="st6" d="M10.58,4.66H5.01c-0.76,0-1.37,0.61-1.37,1.37c0,0.76,0.61,1.37,1.37,1.37c0,0,0,0,0,0h1.41
			v6.29c0,0.76,0.61,1.37,1.37,1.37c0.76,0,1.37-0.61,1.37-1.37V7.39h1.41c0.76,0,1.37-0.61,1.37-1.37
			C11.94,5.27,11.33,4.66,10.58,4.66L10.58,4.66z"/>
	</g>
</g>
</svg>
