<svg xmlns="http://www.w3.org/2000/svg" xmlns:xlink="http://www.w3.org/1999/xlink" width="40" height="40" viewBox="0 0 40 40">
  <defs>
    <clipPath id="clip-comma">
      <rect width="40" height="40"/>
    </clipPath>
  </defs>
  <g id="comma" clip-path="url(#clip-comma)">
    <g id="联合_1" data-name="联合 1" transform="translate(-8211 -11276.124)" fill="#fff" stroke-linecap="round">
      <path d="M 8225 11303.5244140625 C 8223.2783203125 11303.5244140625 8221.8271484375 11302.2373046875 8221.6240234375 11300.53125 L 8221.6220703125 11300.5185546875 L 8221.6201171875 11300.505859375 C 8221.6123046875 11300.4580078125 8221.6064453125 11300.4072265625 8221.5986328125 11300.345703125 C 8221.3583984375 11298.322265625 8222.0009765625 11296.2265625 8223.318359375 11294.744140625 C 8224.0830078125 11293.8837890625 8225.3837890625 11292.873046875 8227.36328125 11292.6923828125 C 8226.107421875 11293.6748046875 8225.5498046875 11294.916015625 8225.7021484375 11296.4013671875 L 8225.7412109375 11296.783203125 L 8226.1044921875 11296.9072265625 C 8227.4775390625 11297.37890625 8228.4013671875 11298.6708984375 8228.4013671875 11300.1240234375 C 8228.4013671875 11301.9990234375 8226.875 11303.5244140625 8225 11303.5244140625 Z" stroke="none"/>
      <path d="M 8225 11302.923828125 C 8226.544921875 11302.923828125 8227.80078125 11301.66796875 8227.80078125 11300.1240234375 C 8227.80078125 11298.927734375 8227.041015625 11297.86328125 8225.9091796875 11297.474609375 L 8225.18359375 11297.2255859375 L 8225.10546875 11296.4619140625 C 8225.0029296875 11295.470703125 8225.181640625 11294.560546875 8225.634765625 11293.7548828125 C 8224.806640625 11294.1298828125 8224.193359375 11294.662109375 8223.7666015625 11295.142578125 C 8222.5625 11296.498046875 8221.974609375 11298.416015625 8222.1943359375 11300.2734375 C 8222.201171875 11300.328125 8222.2060546875 11300.37109375 8222.212890625 11300.408203125 L 8222.216796875 11300.4345703125 L 8222.2197265625 11300.4609375 C 8222.38671875 11301.865234375 8223.58203125 11302.923828125 8225 11302.923828125 M 8225 11304.1240234375 C 8222.9521484375 11304.1240234375 8221.2646484375 11302.5869140625 8221.0283203125 11300.6025390625 C 8221.0185546875 11300.54296875 8221.0107421875 11300.482421875 8221.0029296875 11300.4189453125 C 8220.515625 11296.3115234375 8223.349609375 11292.064453125 8227.994140625 11292.064453125 C 8228.4560546875 11292.064453125 8228.935546875 11292.10546875 8229.4326171875 11292.1943359375 C 8226.603515625 11293.4013671875 8226.162109375 11295.0078125 8226.298828125 11296.33984375 C 8227.8701171875 11296.87890625 8229.0009765625 11298.369140625 8229.0009765625 11300.1240234375 C 8229.0009765625 11302.333984375 8227.2080078125 11304.1240234375 8225 11304.1240234375 Z" stroke="none" fill="#dfe0df"/>
    </g>
    <g id="联合_2" data-name="联合 2" transform="translate(-8201 -11276.124)" fill="#fff" stroke-linecap="round">
      <path d="M 8225 11303.5244140625 C 8223.2783203125 11303.5244140625 8221.8271484375 11302.2373046875 8221.6240234375 11300.53125 L 8221.6220703125 11300.5185546875 L 8221.6201171875 11300.505859375 C 8221.6123046875 11300.4580078125 8221.6064453125 11300.4072265625 8221.5986328125 11300.345703125 C 8221.3583984375 11298.322265625 8222.0009765625 11296.2265625 8223.318359375 11294.744140625 C 8224.0830078125 11293.8837890625 8225.3837890625 11292.873046875 8227.36328125 11292.6923828125 C 8226.107421875 11293.6748046875 8225.5498046875 11294.916015625 8225.7021484375 11296.4013671875 L 8225.7412109375 11296.783203125 L 8226.1044921875 11296.9072265625 C 8227.4775390625 11297.37890625 8228.4013671875 11298.6708984375 8228.4013671875 11300.1240234375 C 8228.4013671875 11301.9990234375 8226.875 11303.5244140625 8225 11303.5244140625 Z" stroke="none"/>
      <path d="M 8225 11302.923828125 C 8226.544921875 11302.923828125 8227.80078125 11301.66796875 8227.80078125 11300.1240234375 C 8227.80078125 11298.927734375 8227.041015625 11297.86328125 8225.9091796875 11297.474609375 L 8225.18359375 11297.2255859375 L 8225.10546875 11296.4619140625 C 8225.0029296875 11295.470703125 8225.181640625 11294.560546875 8225.634765625 11293.7548828125 C 8224.806640625 11294.1298828125 8224.193359375 11294.662109375 8223.7666015625 11295.142578125 C 8222.5625 11296.498046875 8221.974609375 11298.416015625 8222.1943359375 11300.2734375 C 8222.201171875 11300.328125 8222.2060546875 11300.37109375 8222.212890625 11300.408203125 L 8222.216796875 11300.4345703125 L 8222.2197265625 11300.4609375 C 8222.38671875 11301.865234375 8223.58203125 11302.923828125 8225 11302.923828125 M 8225 11304.1240234375 C 8222.9521484375 11304.1240234375 8221.2646484375 11302.5869140625 8221.0283203125 11300.6025390625 C 8221.0185546875 11300.54296875 8221.0107421875 11300.482421875 8221.0029296875 11300.4189453125 C 8220.515625 11296.3115234375 8223.349609375 11292.064453125 8227.994140625 11292.064453125 C 8228.4560546875 11292.064453125 8228.935546875 11292.10546875 8229.4326171875 11292.1943359375 C 8226.603515625 11293.4013671875 8226.162109375 11295.0078125 8226.298828125 11296.33984375 C 8227.8701171875 11296.87890625 8229.0009765625 11298.369140625 8229.0009765625 11300.1240234375 C 8229.0009765625 11302.333984375 8227.2080078125 11304.1240234375 8225 11304.1240234375 Z" stroke="none" fill="#dfe0df"/>
    </g>
  </g>
</svg>
